<svg xmlns="http://www.w3.org/2000/svg" viewBox="0 0 120 120"><defs><style>.cls-1{fill:none;}</style></defs><title>アセット 4</title><g id="レイヤー_2" data-name="レイヤー 2"><g id="figureアイコン"><g id="menu"><path d="M92.32,14.46a1.28,1.28,0,0,1,1.28,1.28v88.51a1.28,1.28,0,0,1-1.28,1.28H32.68a1.28,1.28,0,0,1-1.28-1.28V15.74a1.28,1.28,0,0,1,1.28-1.28H92.32m0-1H32.68a2.25,2.25,0,0,0-2.24,2.24v88.51a2.25,2.25,0,0,0,2.24,2.24H92.32a2.25,2.25,0,0,0,2.24-2.24V15.74a2.25,2.25,0,0,0-2.24-2.24Z"/><rect x="40.53" y="33.38" width="42.65" height="0.96"/><rect x="40.69" y="49.74" width="42.65" height="0.96"/><rect x="40.37" y="82.45" width="42.65" height="0.96"/><rect x="40.37" y="66.09" width="42.65" height="0.96"/><path d="M43.9,25.34l2.27,2.27L43.9,29.88l-2.27-2.27,2.27-2.27m0-1.36-3.63,3.63,3.63,3.63,3.63-3.63L43.9,24Z"/><path d="M43.9,41.7,46.17,44,43.9,46.23,41.63,44,43.9,41.7m0-1.36L40.27,44l3.63,3.63L47.53,44,43.9,40.34Z"/><path d="M43.9,58.05l2.27,2.27L43.9,62.59l-2.27-2.27,2.27-2.27m0-1.36-3.63,3.63,3.63,3.63,3.63-3.63L43.9,56.69Z"/><path d="M43.9,74.41l2.27,2.27L43.9,78.94l-2.27-2.27,2.27-2.27m0-1.36-3.63,3.63L43.9,80.3l3.63-3.63L43.9,73Z"/></g><rect class="cls-1" width="120" height="120"/></g></g></svg>