<svg xmlns="http://www.w3.org/2000/svg" viewBox="0 0 120 120"><defs><style>.cls-1{fill:none;}</style></defs><title>アセット 3</title><g id="レイヤー_2" data-name="レイヤー 2"><g id="figureアイコン"><g id="症例写真"><path d="M72.79,69.16H14a2.49,2.49,0,0,1-2.49-2.49V19A2.49,2.49,0,0,1,14,16.5h58.8A2.49,2.49,0,0,1,75.27,19V66.67A2.49,2.49,0,0,1,72.79,69.16ZM14,17.38A1.61,1.61,0,0,0,12.38,19V66.67A1.61,1.61,0,0,0,14,68.28h58.8a1.61,1.61,0,0,0,1.61-1.61V19a1.61,1.61,0,0,0-1.61-1.61Z"/><path d="M70.88,58H16.18V21.47h54.7Zm-53.83-.88H70V22.35H17.06Z"/><path d="M93.7,105.5a2.48,2.48,0,0,1-.64-.08L36.26,90.2a2.49,2.49,0,0,1-1.76-3l4-14.89.85.23-4,14.89a1.61,1.61,0,0,0,1.14,2l56.8,15.22a1.61,1.61,0,0,0,2-1.14l12.34-46.06a1.61,1.61,0,0,0-1.14-2L78.81,48l.23-.85,27.64,7.41a2.49,2.49,0,0,1,1.76,3L96.1,103.66A2.49,2.49,0,0,1,93.7,105.5Z"/><polygon points="94.09 94.19 93.67 94.07 41.25 80.03 43.34 72.26 44.18 72.49 42.33 79.41 93.47 93.11 102.48 59.48 78.61 53.09 78.84 52.24 103.56 58.86 94.09 94.19"/><path d="M30.66,41.37,30.22,41c-.1-.42-.1-.42,3.22-2.15,1.6-.84,3.84-2,6.65-3.41,4.78-2.43,9.64-4.85,9.68-4.88l.39.79C42.78,35.07,31.57,40.74,31,41.23a.42.42,0,0,0,.11-.45l-.4.14Z"/><rect x="36.44" y="39.46" width="12.43" height="0.88" transform="translate(-13.34 23.29) rotate(-26.57)"/><rect x="60.55" y="69.89" width="11.01" height="0.88" transform="translate(-17.67 22.38) rotate(-17)"/><rect x="70.18" y="71.2" width="8.42" height="0.88" transform="translate(-20.24 30.28) rotate(-20.31)"/></g><rect class="cls-1" width="120" height="120"/></g></g></svg>