<svg xmlns="http://www.w3.org/2000/svg" viewBox="0 0 120 120"><defs><style>.cls-1{fill:none;}</style></defs><title>アセット 5</title><g id="レイヤー_2" data-name="レイヤー 2"><g id="figureアイコン"><g id="injection"><ellipse cx="81.36" cy="98.91" rx="14.91" ry="1.69" transform="translate(-38.51 53.82) rotate(-29.94)"/><path d="M89.92,94c-2,1.43-4.82,3.28-8.34,5.3s-6.57,3.57-8.77,4.55c2-1.43,4.82-3.28,8.34-5.3S87.72,95,89.92,94m4-2.66c-1.55,0-7.08,2.51-13.36,6.13-7.14,4.11-12.55,8.1-12.08,8.91.06.1.19.14.4.14,1.55,0,7.08-2.51,13.36-6.13,7.14-4.11,12.55-8.1,12.08-8.91-.06-.1-.19-.14-.4-.14Z"/><rect x="67.46" y="78.88" width="16.61" height="21.39" transform="translate(-34.6 49.78) rotate(-29.94)"/><path d="M77.17,77.88l9.42,16.35-12.21,7L65,84.92l12.21-7m.46-1.72-14.4,8.29L73.91,103,88.3,94.7,77.63,76.16Z"/><rect x="53.1" y="78.08" width="34.15" height="3.67" rx="1.83" ry="1.83" transform="translate(-30.52 45.7) rotate(-29.94)"/><path d="M83.44,71.68a.43.43,0,0,1,.37.21l.16.27a.42.42,0,0,1-.15.57L57.12,88.1a.4.4,0,0,1-.2.05.43.43,0,0,1-.37-.21l-.16-.27a.43.43,0,0,1,.15-.57L83.23,71.73a.4.4,0,0,1,.2-.05m0-1.26a1.66,1.66,0,0,0-.83.22L55.92,86a1.68,1.68,0,0,0-.62,2.29l.16.27a1.68,1.68,0,0,0,1.46.84,1.66,1.66,0,0,0,.83-.22L84.43,73.82a1.68,1.68,0,0,0,.62-2.29l-.16-.27a1.68,1.68,0,0,0-1.46-.84Z"/><path d="M44.63,17.75l31.71,55L60.93,81.67l-31.71-55,15.41-8.88M45.09,16,27.5,26.17l33,57.23L78.06,73.26,45.09,16Z"/><path d="M37.09,15.75l1.49,2.59-5.42,3.12-1.49-2.59,5.42-3.12M37.55,14,30,18.4l2.75,4.77,7.6-4.38L37.55,14Z"/><rect x="30.43" y="6.16" width="1.26" height="10.78" transform="translate(-1.62 17.04) rotate(-29.94)"/><path d="M45.09,16,27.5,26.17,39.74,47.42,57.34,37.28ZM33.41,34.55,39.84,31l.61,1.1L34,35.65ZM38.25,43l-.63-1.09L44,38.23l.63,1.09Z"/><path d="M44.63,17.75l11,19.07L40.2,45.7l-1-1.79,6.07-3.5,1.09-.63-.63-1.09-.63-1.09-.63-1.09-1.09.63-6.07,3.5-2.34-4.06,6.1-3.37,1.1-.61-.61-1.1-.61-1.1-.61-1.1-1.1.61-6.16,3.41-3.85-6.68,15.41-8.88M45.09,16,27.5,26.17,39.74,47.42,57.34,37.28,45.09,16ZM34,35.65l-.61-1.1L39.84,31l.61,1.1L34,35.65ZM38.25,43l-.63-1.09L44,38.23l.63,1.09L38.25,43Z"/><line x1="41.3" y1="50.13" x2="48.46" y2="46"/><rect x="40.75" y="47.44" width="8.26" height="1.26" transform="translate(-18 28.83) rotate(-29.95)"/><line x1="45.47" y1="57.35" x2="52.63" y2="53.23"/><rect x="44.91" y="54.66" width="8.26" height="1.26" transform="translate(-21.05 31.87) rotate(-29.95)"/><line x1="49.63" y1="64.58" x2="56.79" y2="60.45"/><rect x="49.08" y="61.89" width="8.26" height="1.26" transform="translate(-24.1 34.91) rotate(-29.95)"/></g><rect class="cls-1" width="120" height="120"/></g></g></svg>